<svg xmlns="http://www.w3.org/2000/svg" width="40" height="40" viewBox="0 0 40 40">
    <path data-name="사각형 5928" style="fill:none" d="M0 0h40v40H0z"/>
    <path data-name="패스 3934" d="m23.1 12.119-2.285-2.285L13.2 2.219a.761.761 0 0 0-1.081 0L4.5 9.834l-2.281 2.285A.765.765 0 1 0 3.3 13.2l.982-.99v10.348a.761.761 0 0 0 .761.761h15.231a.761.761 0 0 0 .761-.761V12.21l.982.99a.765.765 0 1 0 1.083-1.081zM19.512 21.8H5.806V10.687l6.853-6.853 6.853 6.853z" transform="translate(7.006 7.005)" style="fill:#fff"/>
</svg>
